<svg width="22" height="22" viewBox="0 0 22 22" fill="none" xmlns="http://www.w3.org/2000/svg">
<path d="M10.9091 21.7273C7.90909 21.7273 5.33333 20.6667 3.18181 18.5455C1.0606 16.394 -3.8147e-06 13.8182 -3.8147e-06 10.8182C-3.8147e-06 7.8485 1.0606 5.30305 3.18181 3.18184C5.33333 1.06062 7.90909 1.52588e-05 10.9091 1.52588e-05C13.8182 1.52588e-05 16.3636 1.06062 18.5455 3.18184C20.7273 5.30305 21.8182 7.8485 21.8182 10.8182C21.8182 12.8182 21.303 14.6515 20.2727 16.3182C19.2727 17.9546 17.9545 19.2727 16.3182 20.2727C14.6818 21.2424 12.8788 21.7273 10.9091 21.7273Z" fill="#C2E821"/>
</svg>
