<?xml version="1.0" encoding="UTF-8"?>
<svg id="Layer_1" data-name="Layer 1" xmlns="http://www.w3.org/2000/svg" viewBox="0 0 3423.1545 800.70001">
  <g>
    <path d="M1135.71661,609.00811c-42.83154,0-76.02588-9.51465-99.58301-28.55469-23.55762-19.02881-35.33643-45.9209-35.33643-80.66602,0-37.12061,12.49268-65.42969,37.47803-84.94922,24.98486-19.5083,59.84131-29.26807,104.58008-29.26807h95.65723v61.3916h-69.95801c-31.88965,0-54.25342,4.40625-67.10303,13.20654-12.84912,8.81152-19.27393,21.3042-19.27393,37.47754,0,13.80908,5.58789,24.62842,16.77539,32.48096,11.17676,7.85205,26.77002,11.77832,46.75781,11.77832,18.08105,0,33.78564-4.0376,47.11475-12.13525,13.31787-8.08691,23.66895-18.79492,31.05322-32.12402,7.37256-13.31787,11.06445-28.30908,11.06445-44.97314h23.55762c0,48.54248-9.75977,86.73389-29.26855,114.57471-19.51953,27.84033-50.68359,41.76074-93.51562,41.76074ZM1238.51251,600.4417l-3.56934-67.10303v-116.35889c0-24.271-2.49854-44.61621-7.49512-61.03516-4.99707-16.41846-13.09521-29.02246-24.27148-37.83447-11.1875-8.80029-26.05566-13.20654-44.61621-13.20654-17.13281,0-32.12354,3.56934-44.97314,10.70801s-23.80273,18.32617-32.8374,33.55176l-69.9585-25.69922c7.60742-15.70508,17.72412-30.33887,30.33936-43.90234,12.604-13.56348,28.5542-24.38281,47.82861-32.48047,19.27393-8.08691,42.47461-12.13574,69.60107-12.13574,34.73389,0,63.76758,6.78174,87.09082,20.34521,23.31201,13.56299,40.56738,32.95996,51.75488,58.1792,11.17627,25.23047,16.77588,55.68115,16.77588,91.37402l-2.1416,195.59766h-73.52783Z" fill="#fff"/>
    <path d="M1376.992,600.4417V100.74004h79.95215v499.70166h-79.95215Z" fill="#fff"/>
    <path d="M1527.61114,600.4417V100.74004h79.95215v433.3125l-4.2832,66.38916h-75.66895ZM1720.35333,609.00811c-29.98242,0-55.80371-7.74121-77.45361-23.20068-21.66162-15.45947-38.19189-37.23193-49.61328-65.31787-11.42188-28.07471-17.13281-60.9126-17.13281-98.5127,0-38.06885,5.71094-71.0293,17.13281-98.86963,11.42139-27.84033,27.95166-49.49072,49.61328-64.96143,21.6499-15.45947,47.47119-23.2002,77.45361-23.2002,32.35791,0,60.55518,7.74072,84.59229,23.2002,24.02588,15.4707,42.83154,37.12109,56.39502,64.96143,13.56299,27.84033,20.34473,60.80078,20.34473,98.86963,0,37.6001-6.78174,70.43799-20.34473,98.5127-13.56348,28.08594-32.36914,49.8584-56.39502,65.31787-24.03711,15.45947-52.23438,23.20068-84.59229,23.20068ZM1700.36504,536.19415c19.02881,0,35.92725-4.87402,50.68408-14.63379,14.74561-9.74854,26.52441-23.20068,35.33594-40.33301,8.80078-17.13281,13.20654-36.87549,13.20654-59.25049,0-22.36377-4.17139-42.11768-12.49268-59.25049-8.33203-17.13232-19.87646-30.45068-34.62207-39.97607-14.75684-9.51416-31.88916-14.27734-51.39795-14.27734-18.0918,0-34.26514,4.76318-48.54248,14.27734-14.27686,9.52539-25.3418,22.84375-33.19434,39.97607-7.85254,17.13281-11.77881,36.88672-11.77881,59.25049,0,22.375,3.92627,42.11768,11.77881,59.25049,7.85254,17.13232,18.79443,30.58447,32.8374,40.33301,14.03174,9.75977,30.09375,14.63379,48.18555,14.63379Z" fill="#fff"/>
    <path d="M2038.73272,600.4417l-159.9043-356.92969h87.09082l124.21143,300.53467,25.69922,56.39502h-77.09717ZM1975.19952,751.78008c-11.42188,0-24.15967-2.1416-38.19141-6.4248-14.04297-4.2832-27.48389-9.75977-40.33301-16.41895l29.98193-64.96094c9.03467,4.2832,17.3667,7.72949,24.98486,10.35059,7.60742,2.61035,13.79785,3.92627,18.56055,3.92627,11.42188,0,21.05859-2.97803,28.91113-8.92285,7.85254-5.95654,14.15479-14.63428,18.91748-26.05615l42.11768-98.5127,120.64209-301.24854h87.09082l-165.61523,394.76416c-9.99414,22.84375-20.11084,42.83154-30.33887,59.96436-10.23975,17.13232-22.96631,30.33887-38.19189,39.61914-15.23633,9.28027-34.74463,13.92041-58.53613,13.92041Z" fill="#fff"/>
    <path d="M2298.57794,600.4417V100.74004h79.95215v499.70166h-79.95215ZM2540.57647,417.69366c0-28.5542-3.33496-50.56152-9.99414-66.03223-6.66992-15.45947-15.82764-26.29004-27.4834-32.48047-11.66748-6.1792-25.10791-9.28027-40.3335-9.28027-27.12646-.46826-47.95117,8.33203-62.4624,26.41309-14.52246,18.0918-21.77295,44.0249-21.77295,77.81055h-30.6958c0-37.58936,5.58838-69.83545,16.77588-96.72803,11.17627-26.88135,27.00391-47.34912,47.47168-61.3916,20.45654-14.03223,44.72754-21.05908,72.81348-21.05908,28.07471,0,52.34619,5.71094,72.81348,17.13281,20.45654,11.42139,36.05029,29.15674,46.75781,53.18213,10.70801,24.03711,16.06201,55.32422,16.06201,93.87256v18.56055h-79.95215ZM2540.57647,600.4417v-182.74805h79.95215v182.74805h-79.95215Z" fill="#ffe480"/>
    <path d="M2675.48614,426.26006v-182.74805h79.95215v182.74805h-79.95215ZM2755.43829,426.26006c0,28.08594,3.32422,49.97021,9.99414,65.6748,6.65918,15.70508,15.81641,26.6582,27.48389,32.83789,11.65576,6.19043,25.09668,9.27979,40.33301,9.27979,27.12646.47998,48.0625-8.3208,62.81934-26.4126,14.74609-18.08057,22.12988-44.01367,22.12988-77.81055h29.98193c0,37.6001-5.59912,69.84668-16.77539,96.72803-11.1875,26.89209-26.89258,47.35986-47.11475,61.3916-20.2334,14.03174-44.61621,21.05908-73.1709,21.05908-28.08594,0-52.23438-5.71094-72.45654-17.13281-20.2334-11.42188-35.81592-29.26807-46.75781-53.53955-10.95312-24.271-16.41895-55.43555-16.41895-93.51562v-18.56006h79.95215ZM2922.48174,600.4417l-4.2832-65.67529V243.51202h79.23828v356.92969h-74.95508Z" fill="#ffe480"/>
    <path d="M3068.10577,600.4417V100.74004h79.95215v433.3125l-4.2832,66.38916h-75.66895ZM3260.84795,609.00811c-29.98242,0-55.80371-7.74121-77.45361-23.20068-21.66162-15.45947-38.19189-37.23193-49.61328-65.31787-11.42188-28.07471-17.13281-60.9126-17.13281-98.5127,0-38.06885,5.71094-71.0293,17.13281-98.86963,11.42139-27.84033,27.95166-49.49072,49.61328-64.96143,21.6499-15.45947,47.47119-23.2002,77.45361-23.2002,32.35791,0,60.55518,7.74072,84.59229,23.2002,24.02588,15.4707,42.83154,37.12109,56.39502,64.96143,13.56299,27.84033,20.34473,60.80078,20.34473,98.86963,0,37.6001-6.78174,70.43799-20.34473,98.5127-13.56348,28.08594-32.36914,49.8584-56.39502,65.31787-24.03711,15.45947-52.23438,23.20068-84.59229,23.20068ZM3240.85967,536.19415c19.02881,0,35.92725-4.87402,50.68408-14.63379,14.74561-9.74854,26.52441-23.20068,35.33594-40.33301,8.80078-17.13281,13.20654-36.87549,13.20654-59.25049,0-22.36377-4.17139-42.11768-12.49268-59.25049-8.33203-17.13232-19.87646-30.45068-34.62207-39.97607-14.75684-9.51416-31.88916-14.27734-51.39795-14.27734-18.0918,0-34.26514,4.76318-48.54248,14.27734-14.27686,9.52539-25.3418,22.84375-33.19434,39.97607-7.85254,17.13281-11.77881,36.88672-11.77881,59.25049,0,22.375,3.92627,42.11768,11.77881,59.25049,7.85254,17.13232,18.79443,30.58447,32.8374,40.33301,14.03174,9.75977,30.09375,14.63379,48.18555,14.63379Z" fill="#ffe480"/>
  </g>
  <g>
    <path d="M141.19967,241.17523c.01995.03989.0416.07974.0639.11993-.02196-.03998-.04293-.07996-.0639-.11993ZM140.54262,239.95591c.001.002.002.004.002.005.002.002.004.005.005.007-.002-.004-.005-.008-.007-.01199ZM796.42848,641.48099c-7.53022-45.382-34.13125-105.16862-63.17661-153.6839-21.75817,28.0413-44.37013,54.31257-69.56626,79.67836,15.19608,27.22268,38.15201,83.13394,37.17859,113.10707-.33496,10.31374-8.45987,18.6384-18.74832,19.30359-32.36907,2.09277-76.11509-16.98094-112.69642-35.20113-27.40892,25.03698-53.97307,47.89719-81.50281,69.02032,57.08555,33.85675,130.55425,66.9742,190.44657,66.80829,87.27762,4.62667,137.86845-77.62034,118.06526-159.03261ZM525.62152,569.05657c110.19128-110.10117,235.3036-252.7312,270.81111-409.05697,25.39372-127.38005-76.03467-186.99814-189.51601-146.96657,21.16505,27.82343,36.42274,58.93398,45.77305,91.49874,8.68099-2.02022,19.69311-3.48091,28.99948-3.15016,10.33393.36728,18.69354,8.63816,19.16073,18.97735,1.39658,30.90711-23.57366,90.28025-40.21382,119.38406,0,.001-.001.002-.001.003l-.005.00799c-62.44475,114.30907-159.18939,220.8424-260.02974,307.70663l-.02296-.01998c-26.36444,22.6463-52.61606,43.39869-80.42439,62.65689.03994.03497.07988.06996.11983.10495-50.93162,35.30486-141.94667,92.53361-201.2134,89.34454-10.38253-.55867-18.62379-9.01864-18.86784-19.42267-.69791-29.75316,21.56413-84.37179,36.38387-111.11181-23.70532-25.99442-46.47103-52.96933-68.63164-81.43836-122.83399,190.03253-77.28367,391.1207,177.29613,281.48628,100.49532-45.46359,196.80054-120.8057,280.38161-200.00392ZM253.5274,400.73884c-46.81711-55.12051-80.68909-102.08841-112.51646-159.91342h-.001c-.0002-.00271-.00211-.00452-.003-.008h-.001c-.00022-.00315-.00419-.00516-.00399-.00899,0,0-.001,0-.001-.001-.14664-.27001-.30802-.57257-.45634-.84653.002.002.004.005.005.007-16.50101-28.7237-41.56469-88.26302-40.35315-119.34694.40795-10.46659,8.81281-18.83113,19.27129-19.20415,9.21143-.32855,20.06938,1.04697,28.66277,3.06198,9.35831-32.56974,24.627-63.68532,45.80601-91.50975C80.47202-26.88448-20.71304,32.62556,4.63842,159.9999c20.87596,112.62449,114.05552,235.41453,186.53018,320.62019-.12482.1769.12382-.1769,0,0,17.79198,20.26764,36.31788,40.65223,55.81737,60.40815,26.72991-19.15026,53.08237-39.61081,79.51072-61.77438-25.91011-25.74659-50.37333-52.06384-72.96929-78.51503ZM142.76537,244.0866c.08489.15691.17175.31782.25963.48273-.08589-.15891-.17275-.31982-.25963-.48273ZM146.446,250.92677c.09286.1699.18372.33981.2736.50771-.08988-.1649-.18074-.33481-.2736-.50771ZM141.00694,240.81743c-.001-.001-.00199-.003-.00299-.004.001.001.00199.003.00199.004.002.003.003.005.004.007-.001-.002-.002-.004-.003-.007ZM141.19967,241.17523c.01995.03989.0416.07974.0639.11993-.02196-.03998-.04293-.07996-.0639-.11993Z" fill="#ffe480"/>
    <path d="M276.96195,299.44402c-68.34175-68.34204-68.34175-179.14613,0-247.48778,68.34175-68.34175,179.14584-68.34175,247.48789,0,68.34107,68.34165,68.34107,179.14574,0,247.48778l-123.74409,123.74409-123.7438-123.74409Z" fill="#fff"/>
  </g>
</svg>