<svg xmlns="http://www.w3.org/2000/svg" width="44" height="42" fill="none">
  <path fill="#146EC4" d="M31.8305.5591A1.9092 1.9092 0 0 0 30.4805 0H13.5192c-.5063 0-.9919.2011-1.35.5591L1.0924 11.6357a1.9094 1.9094 0 0 0-.5592 1.3502v16.1984c0 .5113.205 1.0012.5692 1.36l11.0685 10.9064c.3572.352.8386.5494 1.3401.5494h16.9695c.5064 0 .992-.2013 1.35-.5593l11.0769-11.0766a1.9097 1.9097 0 0 0 .5592-1.35V12.9859c0-.5065-.2012-.9921-.5592-1.3502L31.8305.5591Z"/>
  <path fill="#fff" d="M34.383 22.6635a.6762.6762 0 0 1 .611.3864l.9778 2.0599c.0912.1923-.049.4141-.2618.4141h-4.2456v4.6508a.3866.3866 0 0 1-.3866.3866H27.147a.3866.3866 0 0 1-.3866-.3866v-6.9954h-9.5208v6.9955a.3865.3865 0 0 1-.3866.3865h-3.9307a.3865.3865 0 0 1-.3866-.3865v-4.6509H8.2902c-.2129 0-.3532-.2218-.2618-.4141l.9776-2.06a.6764.6764 0 0 1 .611-.3864h2.9187v-3.3268H9.6171a.6766.6766 0 0 1-.6111-.3864l-.9776-2.06c-.0913-.1923.049-.4141.2618-.4141h4.2455v-4.6509a.3866.3866 0 0 1 .3866-.3865h3.9307a.3865.3865 0 0 1 .3866.3865v6.9955h9.5208v-6.9955a.3866.3866 0 0 1 .3866-.3865h3.9308a.3866.3866 0 0 1 .3866.3865v4.6509H35.71c.2128 0 .353.2217.2618.4141l-.9778 2.06a.6763.6763 0 0 1-.611.3864h-2.9186v3.3268l2.9186.0001Z"/>
</svg>