<svg width="447" height="507" viewBox="0 0 447 507" fill="none" xmlns="http://www.w3.org/2000/svg">
<path d="M266.59 113.388L280.278 39.6875" stroke="white" stroke-width="34.9845"/>
<path d="M173.707 503.63L187.442 429.943" stroke="white" stroke-width="34.9845"/>
<mask id="path-3-outside-1_6434_5332" maskUnits="userSpaceOnUse" x="28.9966" y="85.2937" width="405.282" height="382.858" fill="black">
<rect fill="white" x="28.9966" y="85.2937" width="405.282" height="382.858"/>
<path d="M58.7087 277.838C62.7539 264.772 69.286 253.74 78.3048 244.741C87.3237 235.741 98.7104 229.16 112.465 224.996C126.267 220.678 142.265 219.061 160.459 220.146C178.854 221.124 199.35 225.112 221.946 232.107C238.701 237.295 255.921 243.974 273.605 252.144C291.443 260.362 309.415 270.053 327.52 281.217C329.417 272.371 329.255 263.646 327.034 255.041C324.86 246.283 320.586 238.053 314.211 230.352C308.037 222.544 299.791 215.444 289.474 209.049C279.311 202.702 267.158 197.339 253.016 192.96C245.331 190.581 236.733 188.425 227.225 186.491C217.716 184.558 207.758 182.991 197.349 181.79C186.94 180.589 176.465 179.872 165.924 179.641C155.537 179.457 145.598 180.002 136.108 181.275L132.703 118.821C144.144 118.32 156.182 118.341 168.816 118.884C181.604 119.474 194.48 120.596 207.444 122.252C220.455 123.753 233.299 125.793 245.977 128.37C258.655 130.948 270.759 134.021 282.288 137.591C333.168 153.343 366.96 178.039 383.666 211.68C400.371 245.32 400.42 288.963 383.81 342.61L347.118 461.126L278.868 439.995L286.792 414.402C278.436 416.363 269.459 417.879 259.863 418.951C250.42 420.07 240.351 420.49 229.657 420.211C218.962 419.933 207.69 418.801 195.839 416.816C184.094 415.033 171.919 412.19 159.314 408.288C138.102 401.72 120.139 393.632 105.426 384.024C90.8677 374.463 79.4694 363.943 71.2316 352.465C62.9937 340.986 57.7974 328.934 55.6426 316.307C53.689 303.573 54.7111 290.751 58.7087 277.838ZM131.362 297.805C129.982 302.263 129.802 306.924 130.823 311.788C131.891 316.499 134.462 321.253 138.535 326.052C142.656 330.696 148.327 335.232 155.548 339.657C162.97 343.976 172.292 347.873 183.513 351.347C195.503 355.059 207.441 357.576 219.329 358.899C231.217 360.221 242.55 360.613 253.328 360.076C264.107 359.539 274.13 358.178 283.397 355.993C292.665 353.809 300.673 351.066 307.422 347.766L311.134 335.776C301.586 329.619 291.971 323.947 282.291 318.76C272.765 313.621 263.479 309.062 254.436 305.083C245.594 300.997 237.094 297.439 228.936 294.408C220.931 291.425 213.855 288.981 207.706 287.078C194.948 283.128 184.08 280.689 175.102 279.763C166.124 278.836 158.57 279.024 152.439 280.327C146.356 281.475 141.644 283.638 138.302 286.815C134.96 289.991 132.647 293.655 131.362 297.805Z"/>
</mask>
<path d="M58.7087 277.838C62.7539 264.772 69.286 253.74 78.3048 244.741C87.3237 235.741 98.7104 229.16 112.465 224.996C126.267 220.678 142.265 219.061 160.459 220.146C178.854 221.124 199.35 225.112 221.946 232.107C238.701 237.295 255.921 243.974 273.605 252.144C291.443 260.362 309.415 270.053 327.52 281.217C329.417 272.371 329.255 263.646 327.034 255.041C324.86 246.283 320.586 238.053 314.211 230.352C308.037 222.544 299.791 215.444 289.474 209.049C279.311 202.702 267.158 197.339 253.016 192.96C245.331 190.581 236.733 188.425 227.225 186.491C217.716 184.558 207.758 182.991 197.349 181.79C186.94 180.589 176.465 179.872 165.924 179.641C155.537 179.457 145.598 180.002 136.108 181.275L132.703 118.821C144.144 118.32 156.182 118.341 168.816 118.884C181.604 119.474 194.48 120.596 207.444 122.252C220.455 123.753 233.299 125.793 245.977 128.37C258.655 130.948 270.759 134.021 282.288 137.591C333.168 153.343 366.96 178.039 383.666 211.68C400.371 245.32 400.42 288.963 383.81 342.61L347.118 461.126L278.868 439.995L286.792 414.402C278.436 416.363 269.459 417.879 259.863 418.951C250.42 420.07 240.351 420.49 229.657 420.211C218.962 419.933 207.69 418.801 195.839 416.816C184.094 415.033 171.919 412.19 159.314 408.288C138.102 401.72 120.139 393.632 105.426 384.024C90.8677 374.463 79.4694 363.943 71.2316 352.465C62.9937 340.986 57.7974 328.934 55.6426 316.307C53.689 303.573 54.7111 290.751 58.7087 277.838ZM131.362 297.805C129.982 302.263 129.802 306.924 130.823 311.788C131.891 316.499 134.462 321.253 138.535 326.052C142.656 330.696 148.327 335.232 155.548 339.657C162.97 343.976 172.292 347.873 183.513 351.347C195.503 355.059 207.441 357.576 219.329 358.899C231.217 360.221 242.55 360.613 253.328 360.076C264.107 359.539 274.13 358.178 283.397 355.993C292.665 353.809 300.673 351.066 307.422 347.766L311.134 335.776C301.586 329.619 291.971 323.947 282.291 318.76C272.765 313.621 263.479 309.062 254.436 305.083C245.594 300.997 237.094 297.439 228.936 294.408C220.931 291.425 213.855 288.981 207.706 287.078C194.948 283.128 184.08 280.689 175.102 279.763C166.124 278.836 158.57 279.024 152.439 280.327C146.356 281.475 141.644 283.638 138.302 286.815C134.96 289.991 132.647 293.655 131.362 297.805Z" fill="url(#paint0_linear_6434_5332)"/>
<path d="M78.3049 244.741L77.5635 243.998L78.3049 244.741ZM112.465 224.996L112.769 226L112.778 225.997L112.465 224.996ZM160.459 220.146L160.396 221.194L160.403 221.194L160.459 220.146ZM273.605 252.144L273.165 253.097L273.166 253.097L273.605 252.144ZM327.52 281.217L326.969 282.111L328.235 282.891L328.547 281.437L327.52 281.217ZM327.034 255.041L326.015 255.294L326.017 255.303L327.034 255.041ZM314.211 230.352L313.388 231.003L313.395 231.012L313.402 231.021L314.211 230.352ZM289.474 209.049L288.918 209.939L288.921 209.941L289.474 209.049ZM165.924 179.641L165.947 178.592L165.943 178.592L165.924 179.641ZM136.108 181.275L135.06 181.332L135.122 182.466L136.248 182.315L136.108 181.275ZM132.703 118.821L132.657 117.772L131.597 117.818L131.655 118.878L132.703 118.821ZM168.816 118.884L168.865 117.835L168.861 117.835L168.816 118.884ZM207.444 122.252L207.311 123.293L207.323 123.294L207.444 122.252ZM383.666 211.68L382.726 212.146L383.666 211.68ZM347.118 461.126L346.807 462.128L347.81 462.439L348.12 461.436L347.118 461.126ZM278.868 439.995L277.865 439.685L277.555 440.688L278.557 440.998L278.868 439.995ZM286.792 414.402L287.794 414.712L288.336 412.961L286.552 413.38L286.792 414.402ZM259.863 418.951L259.746 417.908L259.739 417.909L259.863 418.951ZM195.839 416.816L196.012 415.781L196.004 415.78L195.996 415.779L195.839 416.816ZM105.426 384.024L104.85 384.901L104.853 384.902L105.426 384.024ZM71.2316 352.465L70.3789 353.077L71.2316 352.465ZM55.6426 316.307L54.6052 316.466L54.6065 316.474L54.608 316.483L55.6426 316.307ZM130.823 311.788L129.796 312.004L129.797 312.012L129.799 312.02L130.823 311.788ZM138.535 326.052L137.735 326.731L137.743 326.74L137.75 326.748L138.535 326.052ZM155.548 339.657L154.999 340.552L155.01 340.558L155.02 340.564L155.548 339.657ZM219.329 358.899L219.445 357.855L219.329 358.899ZM307.422 347.766L307.883 348.708L308.291 348.509L308.425 348.076L307.422 347.766ZM311.134 335.776L312.137 336.086L312.372 335.325L311.703 334.894L311.134 335.776ZM282.291 318.76L281.793 319.684L281.795 319.685L282.291 318.76ZM254.436 305.083L253.996 306.035L254.004 306.039L254.013 306.043L254.436 305.083ZM228.936 294.408L228.569 295.392L228.57 295.392L228.936 294.408ZM175.102 279.763L174.994 280.807L175.102 279.763ZM152.439 280.327L152.634 281.358L152.646 281.356L152.657 281.353L152.439 280.327ZM58.7087 277.838L59.7113 278.149C63.7098 265.234 70.1571 254.353 79.0462 245.484L78.3049 244.741L77.5635 243.998C68.4148 253.127 61.7981 264.311 57.7061 277.528L58.7087 277.838ZM78.3049 244.741L79.0462 245.484C87.9281 236.621 99.1581 230.121 112.769 226L112.465 224.996L112.161 223.991C98.2627 228.199 86.7193 234.862 77.5635 243.998L78.3049 244.741ZM112.465 224.996L112.778 225.997C126.432 221.726 142.298 220.115 160.396 221.194L160.459 220.146L160.521 219.098C142.232 218.008 126.102 219.63 112.152 223.994L112.465 224.996ZM160.459 220.146L160.403 221.194C178.691 222.167 199.1 226.133 221.635 233.11L221.946 232.107L222.256 231.105C199.599 224.09 179.016 220.082 160.515 219.098L160.459 220.146ZM221.946 232.107L221.635 233.11C238.342 238.282 255.518 244.944 273.165 253.097L273.605 252.144L274.045 251.191C256.323 243.004 239.06 236.307 222.256 231.105L221.946 232.107ZM273.605 252.144L273.166 253.097C290.963 261.296 308.897 270.967 326.969 282.111L327.52 281.217L328.071 280.324C309.933 269.139 291.924 259.428 274.044 251.191L273.605 252.144ZM327.52 281.217L328.547 281.437C330.477 272.435 330.312 263.544 328.05 254.779L327.034 255.041L326.017 255.303C328.197 263.747 328.357 272.308 326.494 280.997L327.52 281.217ZM327.034 255.041L328.052 254.788C325.837 245.861 321.484 237.492 315.019 229.682L314.211 230.352L313.402 231.021C319.688 238.614 323.883 246.704 326.015 255.294L327.034 255.041ZM314.211 230.352L315.034 229.701C308.77 221.78 300.426 214.602 290.027 208.157L289.474 209.049L288.921 209.941C299.157 216.285 307.304 223.309 313.388 231.003L314.211 230.352ZM289.474 209.049L290.03 208.159C279.775 201.754 267.536 196.357 253.327 191.958L253.016 192.96L252.706 193.963C266.781 198.321 278.847 203.649 288.918 209.939L289.474 209.049ZM253.016 192.96L253.327 191.958C245.602 189.566 236.97 187.402 227.434 185.463L227.225 186.491L227.016 187.52C236.497 189.448 245.06 191.596 252.706 193.963L253.016 192.96ZM227.225 186.491L227.434 185.463C217.894 183.523 207.905 181.952 197.469 180.747L197.349 181.79L197.228 182.833C207.61 184.031 217.539 185.593 227.016 187.52L227.225 186.491ZM197.349 181.79L197.469 180.747C187.028 179.542 176.52 178.824 165.947 178.592L165.924 179.641L165.901 180.69C176.41 180.921 186.852 181.635 197.228 182.833L197.349 181.79ZM165.924 179.641L165.943 178.592C155.507 178.407 145.515 178.954 135.968 180.235L136.108 181.275L136.248 182.315C145.681 181.05 155.567 180.508 165.906 180.69L165.924 179.641ZM136.108 181.275L137.156 181.218L133.751 118.763L132.703 118.821L131.655 118.878L135.06 181.332L136.108 181.275ZM132.703 118.821L132.749 119.869C144.157 119.37 156.164 119.391 168.771 119.932L168.816 118.884L168.861 117.835C156.2 117.291 144.132 117.27 132.657 117.772L132.703 118.821ZM168.816 118.884L168.768 119.932C181.527 120.521 194.375 121.641 207.311 123.293L207.444 122.252L207.577 121.211C194.585 119.552 181.681 118.427 168.865 117.835L168.816 118.884ZM207.444 122.252L207.323 123.294C220.305 124.792 233.12 126.827 245.768 129.399L245.977 128.37L246.187 127.342C233.479 124.758 220.605 122.714 207.564 121.209L207.444 122.252ZM245.977 128.37L245.768 129.399C258.415 131.97 270.484 135.035 281.977 138.593L282.288 137.591L282.598 136.588C271.034 133.008 258.896 129.926 246.187 127.342L245.977 128.37ZM282.288 137.591L281.977 138.593C332.7 154.297 366.194 178.856 382.726 212.146L383.666 211.68L384.606 211.213C367.727 177.223 333.636 152.389 282.598 136.588L282.288 137.591ZM383.666 211.68L382.726 212.146C399.264 245.449 399.376 288.785 382.808 342.3L383.81 342.61L384.813 342.921C401.463 289.142 401.479 245.191 384.606 211.213L383.666 211.68ZM383.81 342.61L382.808 342.3L346.115 460.815L347.118 461.126L348.12 461.436L384.813 342.921L383.81 342.61ZM347.118 461.126L347.428 460.123L279.178 438.993L278.868 439.995L278.557 440.998L346.807 462.128L347.118 461.126ZM278.868 439.995L279.87 440.306L287.794 414.712L286.792 414.402L285.789 414.091L277.865 439.685L278.868 439.995ZM286.792 414.402L286.552 413.38C278.241 415.33 269.307 416.84 259.746 417.908L259.863 418.951L259.979 419.994C269.612 418.918 278.63 417.395 287.031 415.423L286.792 414.402ZM259.863 418.951L259.739 417.909C250.352 419.021 240.334 419.44 229.684 419.162L229.657 420.211L229.629 421.261C240.368 421.541 250.488 421.119 259.986 419.993L259.863 418.951ZM229.657 420.211L229.684 419.162C219.044 418.885 207.821 417.759 196.012 415.781L195.839 416.816L195.665 417.851C207.559 419.843 218.881 420.98 229.629 421.261L229.657 420.211ZM195.839 416.816L195.996 415.779C184.309 414.004 172.185 411.174 159.625 407.285L159.314 408.288L159.004 409.29C171.653 413.207 183.879 416.062 195.681 417.854L195.839 416.816ZM159.314 408.288L159.625 407.285C138.482 400.739 120.613 392.688 106 383.145L105.426 384.024L104.853 384.902C119.665 394.576 137.721 402.701 159.004 409.29L159.314 408.288ZM105.426 384.024L106.003 383.146C91.5273 373.64 80.2317 363.205 72.0842 351.853L71.2316 352.465L70.3789 353.077C78.7071 364.681 90.2081 375.285 104.85 384.901L105.426 384.024ZM71.2316 352.465L72.0842 351.853C63.9296 340.49 58.8025 328.584 56.6771 316.13L55.6426 316.307L54.608 316.483C56.7923 329.283 62.0579 341.482 70.3789 353.077L71.2316 352.465ZM55.6426 316.307L56.68 316.147C54.7517 303.579 55.7583 290.917 59.7113 278.149L58.7087 277.838L57.7061 277.528C53.6639 290.584 52.6263 303.568 54.6052 316.466L55.6426 316.307ZM131.362 297.805L130.359 297.495C128.923 302.134 128.741 306.977 129.796 312.004L130.823 311.788L131.85 311.573C130.863 306.871 131.04 302.392 132.364 298.116L131.362 297.805ZM130.823 311.788L129.799 312.02C130.915 316.938 133.585 321.841 137.735 326.731L138.535 326.052L139.335 325.372C135.339 320.665 132.868 316.059 131.846 311.556L130.823 311.788ZM138.535 326.052L137.75 326.748C141.959 331.493 147.72 336.091 154.999 340.552L155.548 339.657L156.096 338.762C148.934 334.373 143.353 329.9 139.32 325.355L138.535 326.052ZM155.548 339.657L155.02 340.564C162.531 344.935 171.931 348.86 183.203 352.35L183.513 351.347L183.823 350.345C172.652 346.886 163.409 343.018 156.076 338.75L155.548 339.657ZM183.513 351.347L183.203 352.35C195.253 356.081 207.256 358.612 219.213 359.942L219.329 358.899L219.445 357.855C207.627 356.541 195.753 354.038 183.823 350.345L183.513 351.347ZM219.329 358.899L219.213 359.942C231.151 361.269 242.54 361.664 253.381 361.124L253.328 360.076L253.276 359.028C242.559 359.562 231.283 359.172 219.445 357.855L219.329 358.899ZM253.328 360.076L253.381 361.124C264.215 360.584 274.302 359.216 283.638 357.015L283.397 355.993L283.157 354.972C273.959 357.14 264 358.493 253.276 359.028L253.328 360.076ZM283.397 355.993L283.638 357.015C292.962 354.817 301.048 352.051 307.883 348.708L307.422 347.766L306.961 346.823C300.298 350.082 292.367 352.801 283.157 354.972L283.397 355.993ZM307.422 347.766L308.425 348.076L312.137 336.086L311.134 335.776L310.132 335.465L306.42 347.455L307.422 347.766ZM311.134 335.776L311.703 334.894C302.132 328.722 292.493 323.036 282.787 317.835L282.291 318.76L281.795 319.685C291.45 324.858 301.04 330.516 310.566 336.658L311.134 335.776ZM282.291 318.76L282.789 317.837C273.24 312.685 263.93 308.113 254.859 304.122L254.436 305.083L254.013 306.043C263.029 310.01 272.289 314.557 281.793 319.684L282.291 318.76ZM254.436 305.083L254.876 304.13C246.012 300.035 237.487 296.466 229.301 293.424L228.936 294.408L228.57 295.392C236.7 298.413 245.175 301.96 253.996 306.035L254.436 305.083ZM228.936 294.408L229.302 293.425C221.285 290.437 214.189 287.986 208.017 286.075L207.706 287.078L207.396 288.08C213.521 289.976 220.578 292.413 228.569 295.392L228.936 294.408ZM207.706 287.078L208.017 286.075C195.221 282.113 184.28 279.655 175.21 278.719L175.102 279.763L174.994 280.807C183.879 281.724 194.675 284.142 207.396 288.08L207.706 287.078ZM175.102 279.763L175.21 278.719C166.166 277.785 158.494 277.967 152.221 279.3L152.439 280.327L152.657 281.353C158.645 280.081 166.081 279.887 174.994 280.807L175.102 279.763ZM152.439 280.327L152.244 279.295C146.029 280.469 141.109 282.698 137.579 286.054L138.302 286.815L139.025 287.575C142.178 284.578 146.683 282.482 152.634 281.358L152.439 280.327ZM138.302 286.815L137.579 286.054C134.115 289.346 131.701 293.162 130.359 297.495L131.362 297.805L132.364 298.116C133.593 294.147 135.805 290.636 139.025 287.575L138.302 286.815Z" fill="white" mask="url(#path-3-outside-1_6434_5332)"/>
<defs>
<linearGradient id="paint0_linear_6434_5332" x1="125.947" y1="127.518" x2="438.183" y2="202.56" gradientUnits="userSpaceOnUse">
<stop offset="0.2049" stop-color="white"/>
</linearGradient>
</defs>
</svg>
